<svg width="161" height="90" viewBox="0 0 161 90" fill="none" xmlns="http://www.w3.org/2000/svg">
<rect width="160.714" height="90" fill="white"/>
<path fill-rule="evenodd" clip-rule="evenodd" d="M160.714 0H0V90H160.714V0ZM23.5629 65.8667C28.7017 71.2411 35.7641 73.9284 44.7501 73.9284H65.9372V71.5261C65.4662 71.3238 65.006 71.1476 64.5566 70.9976C64.2226 70.8756 63.8886 70.7668 63.5545 70.6711C62.8244 70.4268 62.1645 70.1146 61.5748 69.7346C61.135 69.4389 60.77 69.0707 60.48 68.6302C60.1868 68.034 60.0402 67.3028 60.0402 66.4367V56.7968L69.7773 53.2673L76.528 73.9284H81.4984L84.0678 65.5409L69.5231 20.9405C69.7984 20.5837 70.1485 20.2907 70.5733 20.0615C71.1068 19.7629 71.7246 19.5051 72.4266 19.2879C73.1287 19.0708 73.8728 18.7993 74.6591 18.4736V16.0714H57.6684L63.2122 33.1746L67.9189 47.5798L60.0402 50.4357V33.3326L54.4356 16.0714H44.7501C35.7641 16.0714 28.7017 18.7586 23.5629 24.1331C18.5644 29.3447 16.0652 36.2935 16.0652 44.9795C16.0652 53.6927 18.5644 60.655 23.5629 65.8667ZM38.1791 20.3465C40.3694 19.5322 42.5176 19.1251 44.6237 19.1251C46.7017 19.1251 48.1198 19.1929 48.878 19.3286V70.6304C47.7547 70.7661 46.2384 70.834 44.3288 70.834C42.4193 70.834 40.3694 70.4268 38.1791 69.6125C35.9607 68.771 34.0933 67.3596 32.5769 65.3781C29.488 61.3065 27.9435 54.507 27.9435 44.9795C27.9435 31.1362 31.3554 22.9252 38.1791 20.3465ZM137.139 24.1333C132 18.7588 124.938 16.0716 115.952 16.0716L91.7228 16.0714V18.4736C92.3968 18.7993 93.0567 19.0708 93.7025 19.2879L93.813 19.3241L83.4781 53.0819L85.7105 60.2072L97.4203 21.8937H97.5888V66.4367C97.5888 68.0924 96.9851 69.2596 95.7776 69.9382C95.2441 70.2368 94.6403 70.4947 93.9664 70.7118C93.3205 70.929 92.6606 71.2004 91.9866 71.5261V73.9284L115.952 73.9285C124.938 73.9285 132 71.2413 137.139 65.8668C142.137 60.6552 144.637 53.6928 144.637 44.9797C144.637 36.2937 142.137 29.3449 137.139 24.1333ZM122.523 20.3467C120.332 19.5324 118.184 19.1252 116.078 19.1252C114 19.1252 112.582 19.1931 111.824 19.3288V19.2114L111.7 19.2472C111.026 19.4101 110.422 19.6137 109.888 19.858C108.709 20.4551 108.119 21.473 108.119 22.9116V66.4367C108.119 68.1196 108.723 69.2868 109.93 69.9382C110.464 70.2368 111.082 70.4947 111.784 70.7118L111.824 70.7243V70.6306C112.947 70.7663 114.463 70.8341 116.373 70.8341C118.283 70.8341 120.332 70.427 122.523 69.6127C124.741 68.7712 126.609 67.3597 128.125 65.3782C131.214 61.3067 132.758 54.5072 132.758 44.9797C132.758 31.1364 129.346 22.9254 122.523 20.3467Z" fill="#4B8A77"/>
</svg>
