<svg width="302" height="101" viewBox="0 0 302 101" fill="none" xmlns="http://www.w3.org/2000/svg">
<path d="M24.1602 6.90039C24.1602 5.92122 24.0531 5.24805 23.8389 4.88086C23.6553 4.51367 23.3952 4.28418 23.0586 4.19238C22.569 4.06999 22.1712 3.91699 21.8652 3.7334C21.5898 3.51921 21.4521 3.19792 21.4521 2.76953C21.4521 2.00456 22.0029 1.62207 23.1045 1.62207H29.1631C30.387 1.62207 31.764 1.66797 33.2939 1.75977C34.8239 1.82096 36.0938 1.94336 37.1035 2.12695C40.1022 2.70833 42.5348 4.29948 44.4014 6.90039C46.2679 9.4707 47.2012 13.3109 47.2012 18.4209C47.2012 21.9398 46.7422 24.7549 45.8242 26.8662C44.9062 28.9469 43.6823 30.584 42.1523 31.7773C40.7142 32.9095 39.0771 33.7204 37.2412 34.21C35.4359 34.6689 33.2174 34.8984 30.5859 34.8984H24.1602V6.90039ZM32.3301 31.6396C35.1758 31.6396 37.5166 30.584 39.3525 28.4727C41.1885 26.3307 42.1064 22.9801 42.1064 18.4209C42.1064 13.984 41.3415 10.6182 39.8115 8.32324C38.2816 6.02832 36.002 4.88086 32.9727 4.88086H30.9531C29.6986 4.88086 29.0713 5.44694 29.0713 6.5791V29.9873C29.0713 31.0889 29.6986 31.6396 30.9531 31.6396H32.3301ZM63.4492 32.833C63.1126 33.292 62.3936 33.8122 61.292 34.3936C60.1904 34.9443 58.6911 35.2197 56.7939 35.2197C54.7438 35.2197 53.0303 34.623 51.6533 33.4297C50.307 32.2057 49.6338 30.6146 49.6338 28.6562C49.6338 26.0553 50.7965 23.9746 53.1221 22.4141C55.4782 20.8535 58.431 20.0732 61.9805 20.0732H63.4492V18.9717C63.4492 17.4111 63.0361 16.1872 62.21 15.2998C61.3838 14.4124 60.3281 13.9688 59.043 13.9688C57.9108 13.9688 56.9622 14.2594 56.1973 14.8408C55.4323 15.4222 55.0498 16.4167 55.0498 17.8242H49.9092C49.9092 15.6517 50.7507 13.9382 52.4336 12.6836C54.1471 11.429 56.3962 10.8018 59.1807 10.8018C62.1182 10.8018 64.3672 11.5361 65.9277 13.0049C67.4883 14.4736 68.2686 16.4779 68.2686 19.0176V34.8984H63.4492V32.833ZM63.4492 23.4238C60.6035 23.332 58.3851 23.7298 56.7939 24.6172C55.2334 25.474 54.4531 26.6673 54.4531 28.1973C54.4531 29.4824 54.7897 30.3851 55.4629 30.9053C56.1361 31.4255 56.901 31.6855 57.7578 31.6855C59.2266 31.6855 60.5423 31.1807 61.7051 30.1709C62.8678 29.1305 63.4492 27.8913 63.4492 26.4531V23.4238ZM81.9922 27.5088L87.5459 11.3984H89.9326C90.7894 11.3984 91.3096 11.6126 91.4932 12.041C91.7074 12.4694 91.738 12.9131 91.585 13.3721L83.5068 35.0361H80.248L72.2158 15.4375C72.0016 14.9479 71.8486 14.5654 71.7568 14.29C71.665 13.984 71.4814 13.7852 71.2061 13.6934C70.8083 13.571 70.487 13.4333 70.2422 13.2803C69.9974 13.1273 69.875 12.8213 69.875 12.3623C69.875 11.7197 70.4717 11.3984 71.665 11.3984H75.8418L81.9922 27.5088ZM99.5713 34.8984H94.7061V16.6768C94.7061 15.7282 94.6143 15.0703 94.4307 14.7031C94.2777 14.3053 94.0482 14.0605 93.7422 13.9688C93.2526 13.8158 92.8548 13.6475 92.5488 13.4639C92.2734 13.2803 92.1357 13.0049 92.1357 12.6377C92.1357 11.8115 92.7324 11.3984 93.9258 11.3984H97.8271C98.9899 11.3984 99.5713 11.9186 99.5713 12.959V34.8984ZM99.8926 3.96289C99.8926 4.85026 99.5713 5.61523 98.9287 6.25781C98.3167 6.86979 97.5671 7.17578 96.6797 7.17578C95.7617 7.17578 94.9814 6.86979 94.3389 6.25781C93.7269 5.61523 93.4209 4.85026 93.4209 3.96289C93.4209 3.10612 93.7269 2.37174 94.3389 1.75977C94.9814 1.11719 95.7617 0.795898 96.6797 0.795898C97.5671 0.795898 98.3167 1.11719 98.9287 1.75977C99.5713 2.37174 99.8926 3.10612 99.8926 3.96289ZM108.062 23.2402C108.062 26.0553 108.583 28.2279 109.623 29.7578C110.694 31.2572 111.887 32.0068 113.203 32.0068C114.458 32.0068 115.575 31.3184 116.554 29.9414C117.563 28.5645 118.068 26.4837 118.068 23.6992V20.7158C118.068 18.6657 117.563 17.0745 116.554 15.9424C115.575 14.7796 114.396 14.1982 113.02 14.1982C111.704 14.1982 110.541 14.9479 109.531 16.4473C108.552 17.9466 108.062 20.2109 108.062 23.2402ZM118.114 33.292C116.737 34.5771 115.039 35.2197 113.02 35.2197C109.807 35.2197 107.359 34.0723 105.676 31.7773C104.023 29.4824 103.197 26.5908 103.197 23.1025C103.197 19.3695 104.023 16.3861 105.676 14.1523C107.359 11.9186 109.669 10.8018 112.606 10.8018C114.84 10.8018 116.676 11.3372 118.114 12.4082V5.84473C118.114 4.89616 118.038 4.23828 117.885 3.87109C117.732 3.50391 117.502 3.27441 117.196 3.18262C116.707 3.06022 116.309 2.90723 116.003 2.72363C115.728 2.54004 115.59 2.21875 115.59 1.75977C115.59 0.994792 116.187 0.612305 117.38 0.612305H121.189C122.352 0.612305 122.934 1.08659 122.934 2.03516V34.8984H118.114V33.292ZM165.481 18.9258V32.5117C163.248 34.0417 160.387 34.9137 156.898 35.1279C153.41 35.3115 150.488 34.6995 148.132 33.292C145.959 31.9762 144.154 30.0485 142.716 27.5088C141.308 24.9385 140.589 21.7409 140.559 17.916C140.528 12.8978 141.737 8.82812 144.185 5.70703C146.632 2.58594 150.213 1.02539 154.925 1.02539C157.924 1.02539 160.448 1.83626 162.498 3.45801C164.548 5.04915 165.573 6.88509 165.573 8.96582H160.387C160.295 7.65007 159.698 6.5944 158.597 5.79883C157.495 4.97266 156.21 4.55957 154.741 4.55957C152.416 4.55957 150.32 5.63053 148.453 7.77246C146.617 9.88379 145.699 13.0202 145.699 17.1816C145.699 21.7409 146.663 25.2445 148.591 27.6924C150.549 30.1097 152.997 31.3796 155.935 31.502C156.516 31.5326 157.22 31.5173 158.046 31.4561C158.903 31.3643 159.744 31.1654 160.57 30.8594V23.8828C160.57 22.2305 160.249 21.1901 159.606 20.7617C158.964 20.3027 157.786 20.0579 156.072 20.0273C155.43 20.0273 155.108 19.5837 155.108 18.6963C155.108 17.8089 155.445 17.3652 156.118 17.3652H163.875C164.946 17.3652 165.481 17.8854 165.481 18.9258ZM188.477 34.8984H183.611V32.1904C183.305 32.527 182.984 32.8636 182.647 33.2002C181.148 34.5465 179.282 35.2197 177.048 35.2197C175.059 35.2197 173.376 34.516 171.999 33.1084C170.653 31.6702 169.979 29.2835 169.979 25.9482V16.6309C169.979 15.7129 169.903 15.0703 169.75 14.7031C169.628 14.3359 169.444 14.1064 169.199 14.0146C168.74 13.8617 168.327 13.7087 167.96 13.5557C167.623 13.3721 167.455 13.0508 167.455 12.5918C167.455 11.7962 168.052 11.3984 169.245 11.3984H173.101C174.263 11.3984 174.845 11.888 174.845 12.8672V25.9023C174.845 28.0137 175.135 29.4671 175.717 30.2627C176.329 31.0583 177.094 31.4561 178.012 31.4561C179.633 31.4561 181.072 30.6605 182.326 29.0693C182.877 28.3044 183.305 27.3864 183.611 26.3154V16.6768C183.611 15.7282 183.55 15.0703 183.428 14.7031C183.305 14.3359 183.061 14.0911 182.693 13.9688C182.234 13.8158 181.852 13.6475 181.546 13.4639C181.24 13.2803 181.087 13.0049 181.087 12.6377C181.087 11.8115 181.684 11.3984 182.877 11.3984H186.732C187.895 11.3984 188.477 11.9186 188.477 12.959V34.8984ZM198.758 34.8984H193.893V16.6768C193.893 15.7282 193.801 15.0703 193.617 14.7031C193.464 14.3053 193.235 14.0605 192.929 13.9688C192.439 13.8158 192.041 13.6475 191.735 13.4639C191.46 13.2803 191.322 13.0049 191.322 12.6377C191.322 11.8115 191.919 11.3984 193.112 11.3984H197.014C198.176 11.3984 198.758 11.9186 198.758 12.959V34.8984ZM199.079 3.96289C199.079 4.85026 198.758 5.61523 198.115 6.25781C197.503 6.86979 196.754 7.17578 195.866 7.17578C194.948 7.17578 194.168 6.86979 193.525 6.25781C192.913 5.61523 192.607 4.85026 192.607 3.96289C192.607 3.10612 192.913 2.37174 193.525 1.75977C194.168 1.11719 194.948 0.795898 195.866 0.795898C196.754 0.795898 197.503 1.11719 198.115 1.75977C198.758 2.37174 199.079 3.10612 199.079 3.96289ZM208.855 34.8984H204.082V16.6768C204.082 15.7282 204.021 15.0856 203.898 14.749C203.807 14.3818 203.592 14.137 203.256 14.0146C202.766 13.8311 202.353 13.6628 202.017 13.5098C201.68 13.3568 201.512 13.0508 201.512 12.5918C201.512 11.7962 202.108 11.3984 203.302 11.3984H207.111C208.274 11.3984 208.855 11.9186 208.855 12.959V14.3359C209.314 13.724 209.865 13.1732 210.508 12.6836C211.915 11.582 213.644 11.0312 215.694 11.0312C217.714 11.0312 219.366 11.7503 220.651 13.1885C221.967 14.596 222.625 17.0286 222.625 20.4863V34.8984H217.76V20.3486C217.76 18.2373 217.469 16.7992 216.888 16.0342C216.337 15.2386 215.618 14.8408 214.73 14.8408C213.354 14.8714 211.992 15.7282 210.646 17.4111C209.881 18.3291 209.284 19.4766 208.855 20.8535V34.8984ZM230.749 23.2402C230.749 26.0553 231.269 28.2279 232.31 29.7578C233.381 31.2572 234.574 32.0068 235.89 32.0068C237.144 32.0068 238.261 31.3184 239.24 29.9414C240.25 28.5645 240.755 26.4837 240.755 23.6992V20.7158C240.755 18.6657 240.25 17.0745 239.24 15.9424C238.261 14.7796 237.083 14.1982 235.706 14.1982C234.39 14.1982 233.228 14.9479 232.218 16.4473C231.239 17.9466 230.749 20.2109 230.749 23.2402ZM240.801 33.292C239.424 34.5771 237.726 35.2197 235.706 35.2197C232.493 35.2197 230.045 34.0723 228.362 31.7773C226.71 29.4824 225.884 26.5908 225.884 23.1025C225.884 19.3695 226.71 16.3861 228.362 14.1523C230.045 11.9186 232.355 10.8018 235.293 10.8018C237.527 10.8018 239.363 11.3372 240.801 12.4082V5.84473C240.801 4.89616 240.724 4.23828 240.571 3.87109C240.418 3.50391 240.189 3.27441 239.883 3.18262C239.393 3.06022 238.995 2.90723 238.689 2.72363C238.414 2.54004 238.276 2.21875 238.276 1.75977C238.276 0.994792 238.873 0.612305 240.066 0.612305H243.876C245.039 0.612305 245.62 1.08659 245.62 2.03516V34.8984H240.801V33.292ZM249.246 23.0107C249.246 19.4001 250.179 16.4626 252.046 14.1982C253.943 11.9339 256.62 10.8018 260.078 10.8018C263.536 10.8018 266.198 11.9339 268.064 14.1982C269.962 16.4626 270.91 19.4001 270.91 23.0107C270.91 26.6214 269.962 29.5589 268.064 31.8232C266.198 34.0876 263.536 35.2197 260.078 35.2197C256.62 35.2197 253.943 34.0876 252.046 31.8232C250.179 29.5589 249.246 26.6214 249.246 23.0107ZM254.433 23.0107C254.433 26.0706 254.983 28.3503 256.085 29.8496C257.217 31.3184 258.548 32.0527 260.078 32.0527C261.608 32.0527 262.924 31.3184 264.025 29.8496C265.158 28.3503 265.724 26.0706 265.724 23.0107C265.724 19.9508 265.158 17.6865 264.025 16.2178C262.924 14.7184 261.608 13.9688 260.078 13.9688C258.548 13.9688 257.217 14.7184 256.085 16.2178C254.983 17.6865 254.433 19.9508 254.433 23.0107ZM279.355 34.8984H274.582V16.6768C274.582 15.7282 274.521 15.0856 274.398 14.749C274.307 14.3818 274.092 14.137 273.756 14.0146C273.266 13.8311 272.853 13.6628 272.517 13.5098C272.18 13.3568 272.012 13.0508 272.012 12.5918C272.012 11.7962 272.608 11.3984 273.802 11.3984H277.611C278.774 11.3984 279.355 11.9186 279.355 12.959V14.3359C279.814 13.724 280.365 13.1732 281.008 12.6836C282.415 11.582 284.144 11.0312 286.194 11.0312C288.214 11.0312 289.866 11.7503 291.151 13.1885C292.467 14.596 293.125 17.0286 293.125 20.4863V34.8984H288.26V20.3486C288.26 18.2373 287.969 16.7992 287.388 16.0342C286.837 15.2386 286.118 14.8408 285.23 14.8408C283.854 14.8714 282.492 15.7282 281.146 17.4111C280.381 18.3291 279.784 19.4766 279.355 20.8535V34.8984Z" fill="black"/>
<path d="M26.1075 88.151V76.6255C26.1075 76.5219 26.0989 76.4183 26.0816 76.3147C26.0816 76.2111 26.0816 76.1075 26.0816 76.0039C26.0816 75.9176 26.0816 75.8312 26.0816 75.7449C26.0989 75.6586 26.1248 75.5809 26.1593 75.5118C26.2111 75.2528 26.3061 75.0715 26.4442 74.9679C26.5824 74.847 26.755 74.7607 26.9622 74.7089C27.014 74.7089 27.1263 74.7089 27.2989 74.7089C27.4889 74.6916 27.6874 74.6744 27.8946 74.6571C28.1191 74.6571 28.3263 74.6571 28.5162 74.6571C28.7234 74.6398 28.8788 74.6312 28.9824 74.6312C30.2084 74.6657 31.2098 74.8643 31.9868 75.2269C32.7638 75.5895 33.3682 76.0989 33.7998 76.755C34.266 77.5147 34.6027 78.3867 34.8099 79.3709C35.0171 80.3551 35.1207 81.3911 35.1207 82.4789C35.1207 83.8948 34.9653 85.0689 34.6545 86.0013C34.3437 86.9337 33.9207 87.7021 33.3854 88.3064C32.8329 88.9453 32.1163 89.4115 31.2357 89.705C30.3551 89.9985 29.4745 90.1453 28.5939 90.1453C28.4903 90.1453 28.3522 90.1453 28.1795 90.1453C28.0069 90.1453 27.8256 90.1453 27.6356 90.1453C27.4284 90.128 27.2385 90.1108 27.0658 90.0935C26.8932 90.0762 26.7723 90.0417 26.7032 89.9899C26.4788 89.869 26.3234 89.7136 26.237 89.5237C26.168 89.3338 26.1334 89.1611 26.1334 89.0057C26.1162 88.8848 26.1075 88.7553 26.1075 88.6172C26.1075 88.4791 26.1075 88.3237 26.1075 88.151ZM22.2743 74.2945C22.706 74.3463 23.0082 74.424 23.1808 74.5276C23.3708 74.6312 23.5089 74.7175 23.5952 74.7866C23.7161 74.9075 23.8111 75.037 23.8801 75.1751C23.9492 75.3132 24.001 75.46 24.0355 75.6154C24.0528 75.7708 24.0614 75.9348 24.0614 76.1075C24.0787 76.2802 24.0873 76.4615 24.0873 76.6514V91.4403H27.7392C29.1896 91.4403 30.4328 91.3194 31.4688 91.0777C32.5221 90.836 33.4804 90.4129 34.3437 89.8086C35.2761 89.1697 36.01 88.2719 36.5452 87.115C37.0978 85.9581 37.374 84.4128 37.374 82.4789C37.374 79.699 36.8129 77.6011 35.6905 76.1852C34.5855 74.7693 33.1782 73.9233 31.4688 73.647C30.8472 73.5434 30.0789 73.4743 29.1637 73.4398C28.2659 73.388 27.4716 73.3621 26.7809 73.3621H22.2484C22.093 73.3621 21.9635 73.4053 21.8599 73.4916C21.7563 73.5779 21.7132 73.6729 21.7304 73.7765C21.7304 73.9319 21.7736 74.0614 21.8599 74.165C21.9463 74.2513 22.0844 74.2945 22.2743 74.2945ZM49.1885 83.8516H41.7293C41.7811 83.1091 41.9365 82.4616 42.1955 81.9091C42.4545 81.3566 42.7825 80.9076 43.1797 80.5623C43.5595 80.1997 43.9739 79.9321 44.4229 79.7594C44.8891 79.5867 45.3553 79.5004 45.8215 79.5004C46.2531 79.5004 46.6675 79.5781 47.0647 79.7335C47.4791 79.8716 47.8417 80.1047 48.1525 80.4328C48.4805 80.7781 48.7309 81.2271 48.9036 81.7796C49.0935 82.3321 49.1885 83.0228 49.1885 83.8516ZM41.7293 85.1466H51.1569V84.2401C51.2087 83.325 51.0964 82.5134 50.8202 81.8055C50.5612 81.0803 50.1899 80.4673 49.7065 79.9666C49.223 79.4831 48.6618 79.1119 48.023 78.8529C47.4014 78.5766 46.7539 78.4385 46.0805 78.4385C45.1826 78.4385 44.3365 78.568 43.5423 78.827C42.7653 79.0687 42.0832 79.44 41.4962 79.9407C40.9264 80.4414 40.4688 81.0717 40.1235 81.8314C39.7954 82.5911 39.6314 83.4717 39.6314 84.4732C39.6314 85.561 39.7954 86.5366 40.1235 87.3999C40.4515 88.246 40.9091 88.9625 41.4962 89.5496C42.066 90.1367 42.7394 90.5942 43.5164 90.9223C44.2934 91.2504 45.1308 91.423 46.0287 91.4403C47.0301 91.4921 47.8848 91.4403 48.5928 91.2849C49.3007 91.1468 49.9655 90.9309 50.5871 90.6374C50.7598 90.5683 50.872 90.4647 50.9238 90.3266C50.9756 90.1885 50.9842 90.059 50.9497 89.9381C50.8979 89.8172 50.8202 89.7223 50.7166 89.6532C50.613 89.5841 50.5008 89.5755 50.3799 89.6273C49.6202 89.9381 48.869 90.128 48.1266 90.1971C47.3841 90.2662 46.8834 90.2834 46.6244 90.2489C45.1222 90.1108 43.9567 89.5928 43.1279 88.6949C42.2991 87.7798 41.8329 86.597 41.7293 85.1466ZM61.3716 80.6141V78.9047C61.3025 78.8874 61.2248 78.8702 61.1385 78.8529C61.0694 78.8356 60.9831 78.8184 60.8795 78.8011C60.7759 78.7838 60.6637 78.7666 60.5428 78.7493C60.4392 78.7148 60.327 78.6802 60.2061 78.6457C59.4982 78.5076 58.8075 78.4299 58.1341 78.4126C57.478 78.3781 56.8736 78.4299 56.3211 78.568C55.7686 78.7234 55.2765 78.9651 54.8448 79.2932C54.4131 79.604 54.0851 80.027 53.8606 80.5623C53.6534 81.0803 53.5757 81.6069 53.6275 82.1422C53.6793 82.6602 53.8433 83.1005 54.1196 83.4631C54.3959 83.8084 54.7239 84.1106 55.1038 84.3696C55.5009 84.6113 55.9067 84.8272 56.3211 85.0171C56.7528 85.2243 57.1758 85.4142 57.5902 85.5869C58.0046 85.7596 58.3758 85.9322 58.7039 86.1049C59.1874 86.3639 59.5759 86.6574 59.8694 86.9855C60.1629 87.3136 60.3097 87.6934 60.3097 88.1251C60.3097 88.5568 60.2147 88.9107 60.0248 89.187C59.8521 89.4633 59.619 89.6791 59.3255 89.8345C59.032 89.9899 58.6953 90.0935 58.3154 90.1453C57.9355 90.1971 57.5557 90.223 57.1758 90.223C56.7614 90.223 56.3988 90.1971 56.088 90.1453C55.7772 90.0762 55.5009 89.9899 55.2592 89.8863C55.0002 89.8 54.7757 89.705 54.5858 89.6014C54.4131 89.4805 54.2577 89.3683 54.1196 89.2647C53.9297 89.2302 53.7656 89.282 53.6275 89.4201C53.4894 89.541 53.403 89.6877 53.3685 89.8604C53.3512 90.0503 53.3944 90.2489 53.498 90.4561C53.6016 90.6633 53.8002 90.8187 54.0937 90.9223C54.7844 91.1813 55.5959 91.3712 56.5283 91.4921C57.4607 91.613 58.3931 91.5353 59.3255 91.259C60.2924 91.0173 61.009 90.5942 61.4752 89.9899C61.9587 89.3683 62.2004 88.5913 62.2004 87.6589C62.2004 87.3136 62.1572 87.0114 62.0709 86.7524C61.9846 86.4934 61.8637 86.2517 61.7083 86.0272C61.3284 85.5092 60.9054 85.1207 60.4392 84.8617C59.973 84.6027 59.4895 84.3696 58.9888 84.1624C58.4708 83.9552 57.9528 83.7394 57.4348 83.5149C56.9168 83.2732 56.4247 82.9192 55.9585 82.453C55.7858 82.2976 55.6563 82.1163 55.57 81.9091C55.5009 81.6846 55.475 81.4602 55.4923 81.2357C55.5096 80.8213 55.6477 80.5019 55.9067 80.2774C56.183 80.0357 56.5197 79.863 56.9168 79.7594C57.2967 79.6558 57.6938 79.6126 58.1082 79.6299C58.5226 79.6299 58.8852 79.6644 59.196 79.7335C59.5068 79.8198 59.7744 79.9148 59.9989 80.0184C60.2406 80.1047 60.4478 80.1824 60.6205 80.2515C60.7932 80.3378 60.9399 80.4155 61.0608 80.4846C61.1817 80.5364 61.2853 80.5796 61.3716 80.6141ZM66.5176 76.0816C66.9838 76.0816 67.3464 75.9348 67.6054 75.6413C67.8644 75.3305 67.9939 74.9765 67.9939 74.5794C67.9594 74.1305 67.7953 73.7679 67.5018 73.4916C67.2255 73.2153 66.8975 73.0772 66.5176 73.0772C66.0514 73.1117 65.6802 73.2758 65.4039 73.5693C65.1276 73.8456 64.9895 74.1823 64.9895 74.5794C65.0068 75.0456 65.1622 75.4168 65.4557 75.6931C65.7492 75.9521 66.1032 76.0816 66.5176 76.0816ZM67.7608 91.2849V79.9148C67.7608 79.6213 67.6572 79.3623 67.45 79.1378C67.2601 78.8961 66.9752 78.7752 66.5953 78.7752H64.083C63.9103 78.7752 63.7722 78.8184 63.6686 78.9047C63.5823 78.9738 63.5391 79.0687 63.5391 79.1896C63.5391 79.345 63.5823 79.4745 63.6686 79.5781C63.7722 79.6644 63.919 79.7076 64.1089 79.7076C64.2816 79.7076 64.4715 79.7335 64.6787 79.7853C64.8859 79.8371 65.0672 79.9062 65.2226 79.9925C65.5161 80.1997 65.6888 80.4501 65.7406 80.7436C65.7924 81.0199 65.8183 81.4602 65.8183 82.0645V91.2849H67.7608ZM80.5752 85.561C80.5407 86.1135 80.4285 86.6402 80.2385 87.1409C80.0659 87.6244 79.8241 88.0474 79.5133 88.41C79.2198 88.7899 78.8658 89.0834 78.4514 89.2906C78.0543 89.4978 77.6226 89.6014 77.1564 89.6014C76.4312 89.6014 75.8183 89.4719 75.3175 89.2129C74.8341 88.9366 74.4369 88.5654 74.1261 88.0992C73.8153 87.6503 73.5909 87.1323 73.4527 86.5452C73.3146 85.9581 73.2455 85.3538 73.2455 84.7322C73.2455 83.3336 73.5304 82.1681 74.1002 81.2357C74.6873 80.286 75.6456 79.8112 76.9751 79.8112C77.6658 79.8112 78.2442 79.9752 78.7104 80.3033C79.1766 80.6141 79.5479 81.0026 79.8241 81.4688C80.1004 81.9177 80.2903 82.4012 80.3939 82.9192C80.5148 83.4372 80.5752 83.8861 80.5752 84.266V85.561ZM82.4918 81.417C82.4918 80.6918 82.6645 80.2083 83.0098 79.9666C83.3724 79.7076 83.735 79.5781 84.0976 79.5781C84.2358 79.5781 84.348 79.5522 84.4343 79.5004C84.5379 79.4486 84.5984 79.3536 84.6156 79.2155C84.6156 79.0946 84.5725 78.991 84.4861 78.9047C84.3998 78.8184 84.2876 78.7752 84.1494 78.7752H81.3263C81.0846 78.7752 80.8947 78.8443 80.7565 78.9824C80.6357 79.1033 80.5752 79.3105 80.5752 79.604V80.4846H80.5234C80.299 80.0011 79.8241 79.5522 79.0989 79.1378C78.391 78.7061 77.5967 78.4903 76.7161 78.4903C75.8183 78.4903 75.024 78.663 74.3333 79.0083C73.6599 79.3536 73.0901 79.8112 72.6239 80.381C72.1577 80.9508 71.8038 81.6156 71.562 82.3753C71.3376 83.1178 71.2253 83.9034 71.2253 84.7322C71.2253 85.7164 71.3635 86.5884 71.6397 87.3481C71.9333 88.1078 72.3218 88.7553 72.8052 89.2906C73.306 89.8086 73.8844 90.2057 74.5405 90.482C75.1967 90.741 75.896 90.8705 76.6384 90.8705C77.26 90.8705 77.7953 90.8014 78.2442 90.6633C78.6932 90.5252 79.073 90.3525 79.3838 90.1453C79.6774 89.9381 79.9105 89.7223 80.0831 89.4978C80.2731 89.2733 80.4198 89.0748 80.5234 88.9021H80.5752V90.8705C80.5752 90.9914 80.5666 91.095 80.5493 91.1813C80.5493 91.2849 80.5493 91.3885 80.5493 91.4921C80.5493 91.5957 80.5407 91.6993 80.5234 91.8029C80.5234 91.9065 80.5234 92.0187 80.5234 92.1396C80.4198 93.0202 80.0745 93.7109 79.4874 94.2116C78.9176 94.7296 78.1665 94.9886 77.2341 94.9886C76.0427 94.9886 75.2053 94.7728 74.7218 94.3411C74.2384 93.9267 73.9707 93.4605 73.9189 92.9425H71.8728C71.9419 93.8749 72.3736 94.6519 73.1678 95.2735C73.9621 95.8951 75.2398 96.2059 77.001 96.2059C78.6414 96.2059 79.8846 95.8865 80.7306 95.2476C81.5767 94.626 82.0947 93.8922 82.2846 93.0461C82.3537 92.7353 82.4055 92.4418 82.44 92.1655C82.4746 91.8892 82.4918 91.5784 82.4918 91.2331V81.417ZM89.3574 82.1163V79.9407C89.3574 79.6472 89.2538 79.3882 89.0466 79.1637C88.8566 78.922 88.5717 78.8011 88.1919 78.8011H85.6537C85.481 78.8011 85.3429 78.8443 85.2393 78.9306C85.1529 78.9997 85.1098 79.0946 85.1098 79.2155C85.1098 79.3709 85.1529 79.5004 85.2393 79.604C85.3429 79.6903 85.4896 79.7335 85.6796 79.7335C85.8522 79.7335 86.0422 79.7594 86.2494 79.8112C86.4566 79.8457 86.6379 79.9148 86.7933 80.0184C86.9487 80.1393 87.0695 80.2774 87.1559 80.4328C87.2422 80.5709 87.3026 80.7263 87.3372 80.899C87.3717 81.0544 87.389 81.2357 87.389 81.4429C87.4062 81.6328 87.4149 81.84 87.4149 82.0645V91.2849H89.3315V84.9135C89.3315 84.3955 89.461 83.8602 89.72 83.3077C89.979 82.7379 90.3157 82.2285 90.7301 81.7796C91.1445 81.3307 91.5934 80.9594 92.0769 80.6659C92.5776 80.3551 93.0524 80.1911 93.5014 80.1738C93.9848 80.1738 94.3906 80.2515 94.7187 80.4069C95.0467 80.5623 95.3057 80.7695 95.4957 81.0285C95.7029 81.3048 95.841 81.6156 95.9101 81.9609C95.9964 82.289 96.0396 82.617 96.0396 82.9451V91.2849H97.9562V81.7796C97.9562 80.8817 97.6108 80.122 96.9202 79.5004C96.2468 78.8615 95.3316 78.5507 94.1748 78.568C93.4668 78.5853 92.8452 78.7234 92.31 78.9824C91.7747 79.2241 91.3171 79.5177 90.9373 79.863C90.5401 80.2256 90.2121 80.6141 89.9531 81.0285C89.7113 81.4256 89.5214 81.7882 89.3833 82.1163H89.3574ZM110.448 83.8516H102.989C103.041 83.1091 103.196 82.4616 103.455 81.9091C103.714 81.3566 104.042 80.9076 104.439 80.5623C104.819 80.1997 105.234 79.9321 105.682 79.7594C106.149 79.5867 106.615 79.5004 107.081 79.5004C107.513 79.5004 107.927 79.5781 108.324 79.7335C108.739 79.8716 109.101 80.1047 109.412 80.4328C109.74 80.7781 109.99 81.2271 110.163 81.7796C110.353 82.3321 110.448 83.0228 110.448 83.8516ZM102.989 85.1466H112.416V84.2401C112.468 83.325 112.356 82.5134 112.08 81.8055C111.821 81.0803 111.45 80.4673 110.966 79.9666C110.483 79.4831 109.921 79.1119 109.283 78.8529C108.661 78.5766 108.013 78.4385 107.34 78.4385C106.442 78.4385 105.596 78.568 104.802 78.827C104.025 79.0687 103.343 79.44 102.756 79.9407C102.186 80.4414 101.728 81.0717 101.383 81.8314C101.055 82.5911 100.891 83.4717 100.891 84.4732C100.891 85.561 101.055 86.5366 101.383 87.3999C101.711 88.246 102.169 88.9625 102.756 89.5496C103.326 90.1367 103.999 90.5942 104.776 90.9223C105.553 91.2504 106.39 91.423 107.288 91.4403C108.29 91.4921 109.144 91.4403 109.852 91.2849C110.56 91.1468 111.225 90.9309 111.847 90.6374C112.019 90.5683 112.132 90.4647 112.183 90.3266C112.235 90.1885 112.244 90.059 112.209 89.9381C112.157 89.8172 112.08 89.7223 111.976 89.6532C111.873 89.5841 111.76 89.5755 111.639 89.6273C110.88 89.9381 110.129 90.128 109.386 90.1971C108.644 90.2662 108.143 90.2834 107.884 90.2489C106.382 90.1108 105.216 89.5928 104.387 88.6949C103.559 87.7798 103.092 86.597 102.989 85.1466ZM115.975 82.0645V91.3108H117.917V84.9135C117.917 84.7063 117.917 84.4991 117.917 84.2919C117.935 84.0674 117.961 83.8343 117.995 83.5926C118.064 83.0746 118.228 82.5998 118.487 82.1681C118.763 81.7364 119.1 81.4084 119.497 81.1839C119.774 81.0285 120.093 80.9076 120.456 80.8213C120.818 80.735 121.172 80.6745 121.517 80.64C121.863 80.6055 122.182 80.5968 122.476 80.6141C122.787 80.6314 123.02 80.6486 123.175 80.6659V78.6457C123.175 78.6457 123.115 78.6457 122.994 78.6457C122.873 78.6457 122.735 78.6457 122.579 78.6457C122.441 78.6457 122.303 78.6457 122.165 78.6457C122.027 78.6457 121.949 78.6457 121.932 78.6457C121.345 78.6802 120.818 78.8011 120.352 79.0083C119.903 79.2155 119.506 79.4659 119.161 79.7594C118.833 80.0357 118.565 80.3378 118.358 80.6659C118.168 80.9767 118.038 81.253 117.969 81.4947H117.917V79.9407C117.917 79.6472 117.814 79.3882 117.607 79.1637C117.417 78.922 117.132 78.8011 116.752 78.8011H114.214C114.041 78.8011 113.903 78.8443 113.799 78.9306C113.713 78.9997 113.67 79.0946 113.67 79.2155C113.67 79.3709 113.713 79.5004 113.799 79.604C113.903 79.6903 114.05 79.7335 114.24 79.7335C114.412 79.7335 114.602 79.7594 114.809 79.8112C115.017 79.8457 115.198 79.9148 115.353 80.0184C115.509 80.1393 115.63 80.2774 115.716 80.4328C115.802 80.5709 115.863 80.7263 115.897 80.899C115.932 81.0544 115.949 81.2357 115.949 81.4429C115.966 81.6328 115.975 81.84 115.975 82.0645Z" fill="#333333"/>
<path d="M144.681 71.708V94.588H146.345V71.708H144.681Z" fill="#4A7365"/>
<path d="M171.887 88.14V76.57C171.887 76.466 171.879 76.362 171.861 76.258C171.861 76.154 171.861 76.05 171.861 75.946C171.861 75.8593 171.861 75.7727 171.861 75.686C171.879 75.5993 171.905 75.5213 171.939 75.452C171.991 75.192 172.087 75.01 172.225 74.906C172.364 74.7847 172.537 74.698 172.745 74.646C172.797 74.646 172.91 74.646 173.083 74.646C173.274 74.6287 173.473 74.6113 173.681 74.594C173.907 74.594 174.115 74.594 174.305 74.594C174.513 74.5767 174.669 74.568 174.773 74.568C176.004 74.6027 177.009 74.802 177.789 75.166C178.569 75.53 179.176 76.0413 179.609 76.7C180.077 77.4627 180.415 78.338 180.623 79.326C180.831 80.314 180.935 81.354 180.935 82.446C180.935 83.8673 180.779 85.046 180.467 85.982C180.155 86.918 179.731 87.6893 179.193 88.296C178.639 88.9373 177.919 89.4053 177.035 89.7C176.151 89.9947 175.267 90.142 174.383 90.142C174.279 90.142 174.141 90.142 173.967 90.142C173.794 90.142 173.612 90.142 173.421 90.142C173.213 90.1247 173.023 90.1073 172.849 90.09C172.676 90.0727 172.555 90.038 172.485 89.986C172.26 89.8647 172.104 89.7087 172.017 89.518C171.948 89.3273 171.913 89.154 171.913 88.998C171.896 88.8767 171.887 88.7467 171.887 88.608C171.887 88.4693 171.887 88.3133 171.887 88.14ZM168.039 74.23C168.473 74.282 168.776 74.36 168.949 74.464C169.14 74.568 169.279 74.6547 169.365 74.724C169.487 74.8453 169.582 74.9753 169.651 75.114C169.721 75.2527 169.773 75.4 169.807 75.556C169.825 75.712 169.833 75.8767 169.833 76.05C169.851 76.2233 169.859 76.4053 169.859 76.596V91.442H173.525C174.981 91.442 176.229 91.3207 177.269 91.078C178.327 90.8353 179.289 90.4107 180.155 89.804C181.091 89.1627 181.828 88.2613 182.365 87.1C182.92 85.9387 183.197 84.3873 183.197 82.446C183.197 79.6553 182.634 77.5493 181.507 76.128C180.398 74.7067 178.985 73.8573 177.269 73.58C176.645 73.476 175.874 73.4067 174.955 73.372C174.054 73.32 173.257 73.294 172.563 73.294H168.013C167.857 73.294 167.727 73.3373 167.623 73.424C167.519 73.5107 167.476 73.606 167.493 73.71C167.493 73.866 167.537 73.996 167.623 74.1C167.71 74.1867 167.849 74.23 168.039 74.23ZM195.057 83.824H187.569C187.621 83.0787 187.777 82.4287 188.037 81.874C188.297 81.3193 188.627 80.8687 189.025 80.522C189.407 80.158 189.823 79.8893 190.273 79.716C190.741 79.5427 191.209 79.456 191.677 79.456C192.111 79.456 192.527 79.534 192.925 79.69C193.341 79.8287 193.705 80.0627 194.017 80.392C194.347 80.7387 194.598 81.1893 194.771 81.744C194.962 82.2987 195.057 82.992 195.057 83.824ZM187.569 85.124H197.033V84.214C197.085 83.2953 196.973 82.4807 196.695 81.77C196.435 81.042 196.063 80.4267 195.577 79.924C195.092 79.4387 194.529 79.066 193.887 78.806C193.263 78.5287 192.613 78.39 191.937 78.39C191.036 78.39 190.187 78.52 189.389 78.78C188.609 79.0227 187.925 79.3953 187.335 79.898C186.763 80.4007 186.304 81.0333 185.957 81.796C185.628 82.5587 185.463 83.4427 185.463 84.448C185.463 85.54 185.628 86.5193 185.957 87.386C186.287 88.2353 186.746 88.9547 187.335 89.544C187.907 90.1333 188.583 90.5927 189.363 90.922C190.143 91.2513 190.984 91.4247 191.885 91.442C192.891 91.494 193.749 91.442 194.459 91.286C195.17 91.1473 195.837 90.9307 196.461 90.636C196.635 90.5667 196.747 90.4627 196.799 90.324C196.851 90.1853 196.86 90.0553 196.825 89.934C196.773 89.8127 196.695 89.7173 196.591 89.648C196.487 89.5787 196.375 89.57 196.253 89.622C195.491 89.934 194.737 90.1247 193.991 90.194C193.246 90.2633 192.743 90.2807 192.483 90.246C190.975 90.1073 189.805 89.5873 188.973 88.686C188.141 87.7673 187.673 86.58 187.569 85.124ZM198.162 79.56C198.734 79.56 199.124 79.69 199.332 79.95C199.54 80.1927 199.696 80.4353 199.8 80.678L204.636 91.364H205.754L210.59 79.404C210.59 79.404 210.59 79.378 210.59 79.326C210.607 79.2567 210.607 79.1787 210.59 79.092C210.555 79.0053 210.486 78.9273 210.382 78.858C210.295 78.7887 210.139 78.754 209.914 78.754H209.212L205.39 88.426L201.1 78.754H198.084C197.962 78.754 197.858 78.7887 197.772 78.858C197.685 78.91 197.642 78.9967 197.642 79.118C197.642 79.2567 197.694 79.3693 197.798 79.456C197.884 79.5253 198.006 79.56 198.162 79.56ZM221.591 83.824H214.103C214.155 83.0787 214.311 82.4287 214.571 81.874C214.831 81.3193 215.16 80.8687 215.559 80.522C215.94 80.158 216.356 79.8893 216.807 79.716C217.275 79.5427 217.743 79.456 218.211 79.456C218.644 79.456 219.06 79.534 219.459 79.69C219.875 79.8287 220.239 80.0627 220.551 80.392C220.88 80.7387 221.131 81.1893 221.305 81.744C221.495 82.2987 221.591 82.992 221.591 83.824ZM214.103 85.124H223.567V84.214C223.619 83.2953 223.506 82.4807 223.229 81.77C222.969 81.042 222.596 80.4267 222.111 79.924C221.625 79.4387 221.062 79.066 220.421 78.806C219.797 78.5287 219.147 78.39 218.471 78.39C217.569 78.39 216.72 78.52 215.923 78.78C215.143 79.0227 214.458 79.3953 213.869 79.898C213.297 80.4007 212.837 81.0333 212.491 81.796C212.161 82.5587 211.997 83.4427 211.997 84.448C211.997 85.54 212.161 86.5193 212.491 87.386C212.82 88.2353 213.279 88.9547 213.869 89.544C214.441 90.1333 215.117 90.5927 215.897 90.922C216.677 91.2513 217.517 91.4247 218.419 91.442C219.424 91.494 220.282 91.442 220.993 91.286C221.703 91.1473 222.371 90.9307 222.995 90.636C223.168 90.5667 223.281 90.4627 223.333 90.324C223.385 90.1853 223.393 90.0553 223.359 89.934C223.307 89.8127 223.229 89.7173 223.125 89.648C223.021 89.5787 222.908 89.57 222.787 89.622C222.024 89.934 221.27 90.1247 220.525 90.194C219.779 90.2633 219.277 90.2807 219.017 90.246C217.509 90.1073 216.339 89.5873 215.507 88.686C214.675 87.7673 214.207 86.58 214.103 85.124ZM229.063 91.286V73.918C229.063 73.6233 228.959 73.3633 228.751 73.138C228.56 72.8953 228.274 72.774 227.893 72.774H225.345C225.171 72.774 225.033 72.8173 224.929 72.904C224.842 72.9733 224.799 73.0687 224.799 73.19C224.799 73.346 224.842 73.476 224.929 73.58C225.033 73.6667 225.18 73.71 225.371 73.71C225.544 73.71 225.735 73.736 225.943 73.788C226.151 73.8227 226.333 73.892 226.489 73.996C226.645 74.1173 226.766 74.256 226.853 74.412C226.939 74.5507 227 74.698 227.035 74.854C227.069 75.0273 227.087 75.218 227.087 75.426C227.104 75.6167 227.113 75.816 227.113 76.024V91.286H229.063ZM239.009 91.468C240.95 91.468 242.467 90.8873 243.559 89.726C244.668 88.5473 245.223 86.97 245.223 84.994C245.223 83.0007 244.659 81.4147 243.533 80.236C242.423 79.04 240.898 78.442 238.957 78.442C237.917 78.442 237.007 78.6153 236.227 78.962C235.464 79.3087 234.823 79.7853 234.303 80.392C233.8 80.9813 233.419 81.6747 233.159 82.472C232.916 83.2693 232.795 84.1187 232.795 85.02C232.795 87.1173 233.375 88.7207 234.537 89.83C235.698 90.922 237.189 91.468 239.009 91.468ZM234.927 85.02C234.927 84.3267 234.996 83.6593 235.135 83.018C235.273 82.3593 235.507 81.7787 235.837 81.276C236.149 80.7733 236.556 80.3747 237.059 80.08C237.579 79.768 238.203 79.612 238.931 79.612C239.676 79.612 240.309 79.7767 240.829 80.106C241.349 80.418 241.773 80.8253 242.103 81.328C242.432 81.8307 242.666 82.4113 242.805 83.07C242.961 83.7113 243.039 84.3527 243.039 84.994C243.039 85.6527 242.961 86.3027 242.805 86.944C242.649 87.5853 242.415 88.1487 242.103 88.634C241.773 89.1367 241.357 89.544 240.855 89.856C240.352 90.1507 239.745 90.298 239.035 90.298C238.272 90.298 237.631 90.1507 237.111 89.856C236.591 89.5613 236.166 89.1627 235.837 88.66C235.507 88.1747 235.273 87.62 235.135 86.996C234.996 86.3547 234.927 85.696 234.927 85.02ZM250.847 85.67V83.486C250.864 82.8967 250.977 82.368 251.185 81.9C251.393 81.4147 251.653 81.0073 251.965 80.678C252.277 80.3487 252.632 80.0973 253.031 79.924C253.429 79.7333 253.828 79.638 254.227 79.638C254.937 79.638 255.527 79.82 255.995 80.184C256.48 80.5307 256.861 80.964 257.139 81.484C257.416 82.004 257.615 82.576 257.737 83.2C257.858 83.8067 257.919 84.37 257.919 84.89C257.919 85.4793 257.858 86.086 257.737 86.71C257.615 87.334 257.416 87.906 257.139 88.426C256.861 88.946 256.489 89.3707 256.021 89.7C255.553 90.0293 254.972 90.194 254.279 90.194C253.62 90.194 253.065 90.038 252.615 89.726C252.181 89.3967 251.835 88.998 251.575 88.53C251.297 88.062 251.107 87.568 251.003 87.048C250.899 86.528 250.847 86.0687 250.847 85.67ZM250.821 80.574V79.846C250.821 79.5513 250.717 79.2913 250.509 79.066C250.318 78.8233 250.032 78.702 249.651 78.702H247.129C246.955 78.702 246.817 78.7453 246.713 78.832C246.626 78.9013 246.583 78.9967 246.583 79.118C246.583 79.274 246.626 79.404 246.713 79.508C246.817 79.5947 246.964 79.638 247.155 79.638C247.328 79.638 247.519 79.664 247.727 79.716C247.935 79.7507 248.117 79.82 248.273 79.924C248.429 80.0453 248.55 80.184 248.637 80.34C248.723 80.4787 248.784 80.6347 248.819 80.808C248.853 80.964 248.871 81.146 248.871 81.354C248.888 81.5447 248.897 81.7527 248.897 81.978V96.2H250.847V89.362H250.899C251.159 89.9687 251.618 90.4713 252.277 90.87C252.953 91.2687 253.724 91.468 254.591 91.468C255.579 91.468 256.411 91.286 257.087 90.922C257.763 90.558 258.317 90.0727 258.751 89.466C259.167 88.8593 259.47 88.1573 259.661 87.36C259.851 86.5627 259.947 85.722 259.947 84.838C259.947 82.8273 259.444 81.2587 258.439 80.132C257.433 79.0053 256.116 78.442 254.487 78.442C253.949 78.4767 253.473 78.5807 253.057 78.754C252.641 78.91 252.277 79.1007 251.965 79.326C251.653 79.5513 251.401 79.7767 251.211 80.002C251.037 80.2273 250.925 80.418 250.873 80.574H250.821ZM271.636 83.824H264.148C264.2 83.0787 264.356 82.4287 264.616 81.874C264.876 81.3193 265.205 80.8687 265.604 80.522C265.985 80.158 266.401 79.8893 266.852 79.716C267.32 79.5427 267.788 79.456 268.256 79.456C268.689 79.456 269.105 79.534 269.504 79.69C269.92 79.8287 270.284 80.0627 270.596 80.392C270.925 80.7387 271.176 81.1893 271.35 81.744C271.54 82.2987 271.636 82.992 271.636 83.824ZM264.148 85.124H273.612V84.214C273.664 83.2953 273.551 82.4807 273.274 81.77C273.014 81.042 272.641 80.4267 272.156 79.924C271.67 79.4387 271.107 79.066 270.466 78.806C269.842 78.5287 269.192 78.39 268.516 78.39C267.614 78.39 266.765 78.52 265.968 78.78C265.188 79.0227 264.503 79.3953 263.914 79.898C263.342 80.4007 262.882 81.0333 262.536 81.796C262.206 82.5587 262.042 83.4427 262.042 84.448C262.042 85.54 262.206 86.5193 262.536 87.386C262.865 88.2353 263.324 88.9547 263.914 89.544C264.486 90.1333 265.162 90.5927 265.942 90.922C266.722 91.2513 267.562 91.4247 268.464 91.442C269.469 91.494 270.327 91.442 271.038 91.286C271.748 91.1473 272.416 90.9307 273.04 90.636C273.213 90.5667 273.326 90.4627 273.378 90.324C273.43 90.1853 273.438 90.0553 273.404 89.934C273.352 89.8127 273.274 89.7173 273.17 89.648C273.066 89.5787 272.953 89.57 272.832 89.622C272.069 89.934 271.315 90.1247 270.57 90.194C269.824 90.2633 269.322 90.2807 269.062 90.246C267.554 90.1073 266.384 89.5873 265.552 88.686C264.72 87.7673 264.252 86.58 264.148 85.124ZM277.184 82.03V91.312H279.134V84.89C279.134 84.682 279.134 84.474 279.134 84.266C279.151 84.0407 279.177 83.8067 279.212 83.564C279.281 83.044 279.446 82.5673 279.706 82.134C279.983 81.7007 280.321 81.3713 280.72 81.146C280.997 80.99 281.318 80.8687 281.682 80.782C282.046 80.6953 282.401 80.6347 282.748 80.6C283.094 80.5653 283.415 80.5567 283.71 80.574C284.022 80.5913 284.256 80.6087 284.412 80.626V78.598C284.412 78.598 284.351 78.598 284.23 78.598C284.108 78.598 283.97 78.598 283.814 78.598C283.675 78.598 283.536 78.598 283.398 78.598C283.259 78.598 283.181 78.598 283.164 78.598C282.574 78.6327 282.046 78.754 281.578 78.962C281.127 79.17 280.728 79.4213 280.382 79.716C280.052 79.9933 279.784 80.2967 279.576 80.626C279.385 80.938 279.255 81.2153 279.186 81.458H279.134V79.898C279.134 79.6033 279.03 79.3433 278.822 79.118C278.631 78.8753 278.345 78.754 277.964 78.754H275.416C275.242 78.754 275.104 78.7973 275 78.884C274.913 78.9533 274.87 79.0487 274.87 79.17C274.87 79.326 274.913 79.456 275 79.56C275.104 79.6467 275.251 79.69 275.442 79.69C275.615 79.69 275.806 79.716 276.014 79.768C276.222 79.8027 276.404 79.872 276.56 79.976C276.716 80.0973 276.837 80.236 276.924 80.392C277.01 80.5307 277.071 80.6867 277.106 80.86C277.14 81.016 277.158 81.198 277.158 81.406C277.175 81.5967 277.184 81.8047 277.184 82.03Z" fill="#333333"/>
<path d="M0 43H302V48H0V43Z" fill="#98ACA5"/>
</svg>
