<svg width="88" height="121" viewBox="0 0 88 121" fill="none" xmlns="http://www.w3.org/2000/svg">
<path d="M61.3261 31.5064C57.416 31.0231 51.0455 17.6672 51.0455 17.6672C29.1225 17.184 30.3966 51.0131 30.3966 51.0131C33.9553 58.0425 44.807 60.8103 44.807 60.8103C61.6336 55.8458 60.6232 42.2263 60.6232 42.2263C61.37 41.6991 62.029 41.1279 62.5123 40.6007C62.5562 40.425 62.7759 40.3371 62.8638 40.2053C63.1713 39.8539 63.391 39.5463 63.5667 39.2388C63.9182 38.4919 65.0165 36.9103 63.5228 33.9667C62.6441 32.429 61.3261 31.5064 61.3261 31.5064Z" fill="#F79756"/>
<path d="M43.7526 0.00611753C7.06782 0.225787 21.3902 69.6852 21.3902 69.6852H67.7844C75.1653 -2.05878 43.7526 0.00611753 43.7526 0.00611753ZM60.6232 42.2266C60.6232 42.2266 61.6776 55.8461 44.807 60.8106C44.807 60.8106 33.9553 58.0428 30.3967 51.0133C30.3967 51.0133 29.1226 17.1842 51.0456 17.6675C51.0456 17.6675 57.3721 31.0673 61.3262 31.5067C61.3262 31.5067 68.5753 36.603 60.6232 42.2266Z" fill="#714A2D"/>
<path d="M83.687 74.7373C80.3919 70.3879 60.8413 65.7748 59.8308 64.9401C58.8204 64.1493 52.6696 59.8438 52.6696 59.8438L43.751 64.1493L34.7885 59.8438C34.7885 59.8438 28.6378 64.1493 27.6273 64.9401C26.6169 65.7309 7.11018 70.3879 3.81514 74.7373C-1.98413 82.294 0.73977 110.412 0.080762 121H43.751H87.4213C86.8063 110.412 89.4862 82.294 83.687 74.7373Z" fill="#353535"/>
<path d="M52.7143 57.1199C50.298 58.7454 45.0259 60.8542 44.8062 60.8103C42.8731 60.4149 35.1847 56.5048 34.9211 56.1094C34.9211 56.1094 34.7453 57.9985 35.0529 59.8438C36.5027 73.2875 39.9735 74.3419 44.5426 74.3419C52.6704 74.3419 52.0992 61.2057 52.4946 60.0195C52.4946 58.4818 52.7143 57.1199 52.7143 57.1199Z" fill="#E08C53"/>
<path d="M58.469 63.9297C56.7556 62.6995 54.0316 60.8104 53.0651 60.1074V61.5572C53.0651 61.5572 53.2848 75.3525 43.7511 75.1767C43.4875 75.1767 42.9603 75.1328 42.9603 75.1328C34.2614 74.5177 34.4372 61.5133 34.4372 61.5133V60.0635C33.4706 60.7225 30.7906 62.6116 29.0333 63.8857C29.5166 68.1473 30.9225 75.001 35.3159 78.9111L25.5625 83.6999V120.956H32.5041V88.0054L45.0692 81.8107C56.7556 77.9446 57.81 69.9486 58.469 63.9297Z" fill="#BDBDBD"/>
<path d="M28.9006 98.5933C30.4292 98.5933 31.6685 97.3541 31.6685 95.8254C31.6685 94.2968 30.4292 93.0576 28.9006 93.0576C27.372 93.0576 26.1328 94.2968 26.1328 95.8254C26.1328 97.3541 27.372 98.5933 28.9006 98.5933Z" fill="#787878"/>
<path d="M28.9006 108.171C30.4292 108.171 31.6685 106.932 31.6685 105.404C31.6685 103.875 30.4292 102.636 28.9006 102.636C27.372 102.636 26.1328 103.875 26.1328 105.404C26.1328 106.932 27.372 108.171 28.9006 108.171Z" fill="#787878"/>
<path d="M28.9006 116.827C30.4292 116.827 31.6685 115.587 31.6685 114.059C31.6685 112.53 30.4292 111.291 28.9006 111.291C27.372 111.291 26.1328 112.53 26.1328 114.059C26.1328 115.587 27.372 116.827 28.9006 116.827Z" fill="#787878"/>
</svg>
