<svg width="84" height="121" viewBox="0 0 84 121" fill="none" xmlns="http://www.w3.org/2000/svg">
<path d="M80.0269 76.7608C76.876 72.6016 58.1804 68.1903 57.2562 67.392C56.2899 66.6358 50.4081 62.5186 50.4081 62.5186H41.8376H33.2671C33.2671 62.5186 27.3853 66.6358 26.419 67.392C25.4527 68.1482 6.79922 72.6016 3.64829 76.7608C-1.89735 83.9869 0.707417 110.875 0.0772299 121H41.8376H83.598C82.9678 110.875 85.5726 83.9869 80.0269 76.7608Z" fill="#991307"/>
<path d="M50.3243 81.3408H34.0234V121.001H50.3243V81.3408Z" fill="#FAD7D5"/>
<path d="M53.139 59.3676C52.8449 59.7877 52.5088 60.1659 52.1727 60.544L52.1307 60.586C49.6519 63.2748 46.501 65.2074 42.5098 65.7115C42.3838 65.7115 42.2998 65.7115 42.1737 65.7115C42.0477 65.7115 41.9637 65.7115 41.8376 65.7115C37.8044 65.1653 34.6535 63.2328 32.1748 60.544C31.5866 59.8718 31.0404 59.1576 30.5363 58.4434V62.4765H30.4943C30.4943 62.4765 30.4943 63.3168 30.2422 64.3671C30.5783 65.2074 34.0233 81.2981 34.0233 81.2981C34.0233 81.2981 34.0233 86.8438 42.1737 86.8438C50.3241 86.8438 50.3241 81.2981 50.3241 81.2981C50.3241 81.2981 53.097 65.2074 53.4331 64.3671C53.223 63.4848 53.181 62.7706 53.181 62.5606V59.3676H53.139Z" fill="#EB9257"/>
<path d="M71.6236 37.0591C66.3721 35.8408 70.6994 11.4316 53.4323 3.32316C29.2331 -8.06222 18.9821 13.1961 18.2258 16.473C8.31089 61.5944 20.5365 97.0109 20.5365 97.0109C35.2409 93.1458 34.9888 75.4165 31.7118 59.9979C29.9893 57.9393 28.6449 55.6707 27.6366 53.402C27.0064 51.9736 26.4603 50.5031 25.9981 49.0327C23.7715 41.8486 24.0235 35.0846 24.0235 35.0846C31.9219 27.0182 33.8965 21.5986 34.4006 19.2459C34.5687 18.3216 34.5687 17.8595 34.5687 17.8595C34.5687 17.9015 34.5687 17.9015 34.5687 17.9435C34.5687 18.0275 34.6107 18.1115 34.6107 18.1955C34.6107 18.2796 34.6527 18.4056 34.6947 18.4896C34.7367 18.6997 34.7787 18.8678 34.8628 19.0778V19.1198V19.1619C35.0728 19.75 35.3669 20.2962 35.703 20.8844C35.703 20.8844 35.703 20.9264 35.745 20.9264C38.3078 24.9596 44.3156 28.4466 49.7772 30.9253C49.7772 30.9253 49.8192 30.9253 49.8192 30.9673C50.1133 31.0934 50.4074 31.2194 50.6594 31.3455C50.7014 31.3455 50.7014 31.3875 50.7435 31.3875C51.5417 31.7656 52.3399 32.0597 53.0962 32.3958C53.1802 32.4378 53.2642 32.4798 53.3482 32.4798C53.5583 32.5638 53.7684 32.6478 53.9364 32.7319C54.0624 32.7739 54.1465 32.8159 54.2725 32.8579C54.4406 32.9419 54.6086 32.9839 54.7767 33.068C54.9447 33.11 55.0707 33.194 55.2388 33.236C55.4068 33.32 55.5749 33.362 55.7429 33.4041C55.953 33.4881 56.2051 33.5721 56.4151 33.6561C56.4992 33.6982 56.5832 33.7402 56.6672 33.7402C56.8353 33.8242 57.0033 33.8662 57.1714 33.9082C57.2554 33.9502 57.3394 33.9502 57.4234 33.9922C57.5915 34.0763 57.7595 34.1183 57.9276 34.1603C57.9696 34.1603 58.0116 34.2023 58.0536 34.2023C58.5158 34.3704 58.8939 34.4964 59.188 34.5804H59.23C59.314 34.6224 59.398 34.6224 59.482 34.6644C59.9022 34.7905 60.0702 34.7905 60.1963 34.8745C60.2383 34.8745 60.2803 34.9165 60.2803 34.9165C60.2803 34.9585 60.2803 35.0425 60.2803 35.0846C60.2803 35.1686 60.2803 35.2946 60.2803 35.5047C60.2803 36.0929 60.2803 36.639 60.2803 37.1852C60.1963 39.5379 59.8602 44.0332 58.3057 48.9487C58.2637 49.0327 58.2637 49.1167 58.2217 49.2008C55.827 56.889 52.1299 60.4181 52.1299 60.4181C70.9935 57.6452 66.2881 35.7147 66.2881 35.7147C68.0106 37.5633 71.6236 37.0591 71.6236 37.0591Z" fill="#30210F"/>
<path d="M24.2914 44.7033C25.9466 44.4775 26.9935 42.1325 26.6296 39.4658C26.2657 36.799 24.6289 34.8202 22.9736 35.0461C21.3184 35.272 20.2716 37.6169 20.6355 40.2837C20.9993 42.9505 22.6362 44.9292 24.2914 44.7033Z" fill="#EB9257"/>
<path d="M62.9812 40.2657C63.3451 37.5989 62.2982 35.254 60.643 35.0281C58.9877 34.8023 57.3509 36.781 56.987 39.4478C56.6231 42.1145 57.67 44.4595 59.3252 44.6853C60.9804 44.9112 62.6173 42.9325 62.9812 40.2657Z" fill="#EB9257"/>
<path d="M52.2136 60.5859C54.1462 58.3593 55.6166 55.9226 56.751 53.4858C57.3811 52.0574 57.9273 50.587 58.3894 49.1166C59.9019 44.2011 60.28 39.6638 60.364 37.3531C60.364 36.8069 60.364 36.2187 60.364 35.6726C60.364 34.8743 60.364 35.0844 59.5658 34.8323C55.8687 33.614 40.3241 28.2364 35.7447 21.0522C35.7447 21.0522 35.7447 21.0102 35.7027 21.0102C35.3666 20.4641 35.0725 19.8759 34.8625 19.2877C34.8625 19.2457 34.8205 19.2457 34.8205 19.2037C34.7364 19.0356 34.6944 18.8256 34.6524 18.6155C34.6524 18.5735 34.6524 18.5735 34.6524 18.5315C34.6104 18.3634 34.5684 18.1954 34.5264 18.0273C34.5264 18.7416 34.2743 24.7073 23.9812 35.2104C23.9812 35.2104 23.7292 41.9744 25.9558 49.1586C26.418 50.629 26.9641 52.0994 27.5943 53.5279C28.7287 56.0066 30.1991 58.4433 32.1317 60.67C34.6104 63.3588 37.7613 65.2913 41.7945 65.8375C41.9206 65.8375 42.0046 65.8375 42.1306 65.8375C42.2567 65.8375 42.3407 65.8375 42.4667 65.8375C46.5419 65.2073 49.6929 63.2747 52.2136 60.5859C52.1716 60.5859 52.1716 60.5859 52.2136 60.5859Z" fill="#F4A169"/>
</svg>
