<svg width="100" height="121" viewBox="0 0 100 121" fill="none" xmlns="http://www.w3.org/2000/svg">
<path d="M94.7775 79.4286C91.0213 74.7861 65.9941 67.9067 65.0234 67.1471C64.8968 67.0205 64.728 66.8516 64.517 66.6406C63.5041 70.5234 60.2543 77.5294 49.5766 79.935C38.8989 77.5716 35.607 70.5656 34.6363 66.6406C34.4252 66.8516 34.2564 67.0205 34.1298 67.1471C33.1591 67.9067 8.13191 74.8283 4.37572 79.4286C-2.20816 87.5318 0.872757 109.605 0.155282 121H49.6188H99.0824C98.2805 109.605 101.361 87.574 94.7775 79.4286Z" fill="white"/>
<path d="M60.7589 56.6387C57.889 59.804 54.0062 62.5473 49.5325 62.5473C45.0588 62.5473 41.2182 59.8462 38.3483 56.6809V64.3199C37.6309 65.0374 36.0693 65.8814 34.7188 66.6411C34.7188 66.6411 34.7188 66.8099 34.7188 67.0632C35.8583 71.0304 39.0236 79.9355 49.5325 79.9355C60.0836 79.9355 63.2489 71.0304 64.3462 67.0632C64.3462 66.8099 64.3462 66.6411 64.3462 66.6411C62.9957 65.8814 61.4341 65.0374 60.7167 64.3199V56.6387H60.7589Z" fill="#EB9257"/>
<path d="M94.7763 79.4286C91.0202 74.7861 65.993 67.9067 65.0223 67.1471C64.8956 67.0205 64.7268 66.8516 64.5158 66.6406C64.0093 68.6242 62.1946 70.8611 60.5908 73.8998C53.6271 87.3208 48.3515 112.432 49.5332 121H98.9968C98.2793 109.605 101.36 87.574 94.7763 79.4286Z" fill="#F4B251"/>
<path d="M34.5933 66.6406C34.3823 66.8516 34.2135 67.0205 34.0869 67.1471C33.1162 67.9067 8.08894 74.8283 4.33275 79.4286C-2.25113 87.5318 0.829788 109.605 0.112314 121H49.5759C50.7576 112.432 45.482 87.3208 38.5183 73.8998C36.9145 70.8611 35.0998 68.582 34.5933 66.6406Z" fill="#F4B251"/>
<path d="M69.1161 32.117C68.8206 36.7173 68.4408 41.5286 67.9766 45.2848C72.3236 43.3434 72.8301 36.4219 72.9989 32.5391C73.1255 29.2893 70.2978 31.1885 69.1161 32.117Z" fill="#EB9257"/>
<path d="M29.9915 32.117C30.2869 36.7173 30.6668 41.5286 31.131 45.2848C26.784 43.3434 26.2775 36.4219 26.1087 32.5391C25.9399 29.2893 28.8098 31.1885 29.9915 32.117Z" fill="#EB9257"/>
<path d="M67.9352 28.9522C67.9774 28.4458 67.5554 22.9592 66.7535 21.5243C64.8121 18.0635 58.8191 16.502 57.764 16.502C56.6666 16.502 52.8261 19.203 51.5177 19.5829C50.2094 19.9627 44.8916 20.2159 41.7263 18.7388C39.9959 17.8947 37.0838 20.638 35.1424 21.3133C29.276 23.3813 31.2174 43.0485 31.0486 44.3147C31.4706 47.7332 31.9349 50.4343 32.5257 51.616C34.8892 56.5117 41.262 65.0792 49.5763 65.0792C57.8906 65.0792 64.2634 56.5117 66.6269 51.616C67.3022 50.1811 67.893 46.6359 68.3151 42.2888C68.0618 41.2759 67.471 32.6662 67.9352 28.9522Z" fill="#F4A169"/>
<path d="M69.2868 9.03174C69.962 7.97663 70.6373 6.16184 70.4685 3.16533C70.4685 3.16533 68.5693 4.34705 66.5435 4.51587C66.5435 4.51587 68.4005 3.92501 68.5271 0.633066C68.4849 0.886292 67.9362 2.11022 61.69 2.23683C58.5668 0.844089 54.5996 0 49.4929 0C15.2651 0 30.9652 44.2724 30.9652 44.2724C30.7119 33.8479 34.2993 23.0436 34.2993 23.0436C38.4775 25.5337 49.4929 25.8713 49.4929 25.8713C49.4929 25.8713 60.5082 25.5337 64.6865 23.0436C64.6865 23.0436 68.316 33.5103 68.0628 43.9348C68.0206 43.977 75.4908 20.0049 69.2868 9.03174Z" fill="#8D6541"/>
</svg>
