<svg width="100" height="121" viewBox="0 0 100 121" fill="none" xmlns="http://www.w3.org/2000/svg">
<g id="Male1">
<path id="Shirt" d="M95.6213 78.2625C91.8316 73.5786 66.5814 66.638 65.602 65.829C64.6227 65.0199 61.5569 60.8896 61.5569 60.8896H50.0176H38.4357C38.4357 60.8896 35.3699 65.0625 34.3906 65.829C33.4112 66.5954 8.16102 73.5786 4.37136 78.2625C-2.27119 86.4379 0.837182 108.707 0.113314 120.204H50.0176H99.9219C99.1554 108.707 102.264 86.4805 95.6213 78.2625Z" fill="#0F303F"/>
<path id="Neck" d="M50.0198 78.2625L38.4805 60.8896V50.2871H61.5591V60.8471L50.0198 78.2625Z" fill="#A3754C"/>
<g id="Ears">
<path id="rightEar" d="M68.1973 30.5723C67.9418 34.8729 67.5586 39.3438 67.1328 42.8354C71.178 41.0045 71.6463 34.5748 71.8167 30.9981C71.9444 27.9323 69.3044 29.6781 68.1973 30.5723Z" fill="#A3754C"/>
<path id="leftEar" d="M31.8342 30.5723C32.0897 34.8729 32.4729 39.3438 32.8987 42.8354C28.8536 41.0045 28.3852 34.5748 28.2149 30.9981C28.0446 27.9323 30.6846 29.6781 31.8342 30.5723Z" fill="#A3754C"/>
</g>
<path id="Face" d="M58.1914 16.3515C52.9966 18.6935 50.016 18.7786 50.016 18.7786C50.016 18.7786 46.9928 18.6935 41.8405 16.3515C40.3076 15.6702 31.6212 14.1373 31.7915 29.5515C32.2599 37.4714 33.0264 46.2856 34.176 48.6701C36.3902 53.2262 42.3089 61.1887 50.016 61.1887C57.7656 61.1887 63.6843 53.1836 65.8559 48.6701C67.0056 46.2856 67.772 37.4714 68.2404 29.5515C68.4107 14.1373 59.7243 15.6702 58.1914 16.3515Z" fill="#BE8859"/>
<path id="Collar" d="M64.8348 65.1481C63.5574 63.7004 61.5135 60.9326 61.5135 60.9326L50.0168 78.2629L38.4775 60.9326C38.4775 60.9326 36.4337 63.7004 35.1562 65.1481L42.8207 88.5248L50.0168 82.1803L57.2129 88.5248L64.8348 65.1481Z" fill="#D1BAB0"/>
<path id="Hair" d="M72.1181 18.5225C72.3736 18.1819 72.5439 17.7561 72.5439 17.2877C72.5439 16.5212 72.1607 15.8825 71.5645 15.4993C71.6071 15.3715 71.6071 15.2012 71.6071 15.0735C71.6071 14.3496 71.2239 13.6683 70.6703 13.2851C70.7981 12.987 70.8832 12.689 70.8832 12.3483C70.8832 11.4116 70.2871 10.6451 69.4781 10.3471C69.18 9.70834 68.5413 9.23996 67.8175 9.1548C67.86 8.98448 67.9026 8.81415 67.9026 8.64383C67.9026 7.45158 66.9233 6.51481 65.7736 6.51481H65.731C65.5607 5.6632 64.8794 5.02449 64.0278 4.89675C63.7297 4.1303 62.9207 3.53418 62.0265 3.53418C61.5155 3.53418 61.0897 3.7045 60.7065 4.00257C60.3659 3.23612 59.5994 2.68257 58.7478 2.68257H58.7052C58.4923 1.70322 57.6407 1.02193 56.6188 1.02193C55.9801 1.02193 55.4265 1.32 55.0007 1.7458C54.6601 1.02193 53.9362 0.510964 53.0846 0.510964C52.6162 0.510964 52.1904 0.68129 51.8498 0.894192C51.4666 0.340646 50.8279 0 50.104 0C49.4227 0 48.8266 0.340648 48.4008 0.809032C48.0175 0.298067 47.4214 0 46.6975 0C45.5905 0 44.6537 0.851612 44.5685 1.9587C43.8447 1.9587 43.206 2.29934 42.8227 2.85289C42.7801 2.85289 42.695 2.89547 42.6524 2.89547C42.3543 2.72515 42.0137 2.59741 41.6305 2.59741C40.7789 2.59741 40.055 3.10838 39.7144 3.78966C39.3737 3.57676 38.9479 3.40644 38.5221 3.40644C37.7557 3.40644 37.1169 3.78966 36.7337 4.38579C36.5208 4.30063 36.2653 4.25805 36.0099 4.25805C34.8176 4.25805 33.8808 5.2374 33.8808 6.38707C33.8808 6.55739 33.9234 6.72771 33.966 6.89803C33.0292 7.11093 32.3479 7.87738 32.2628 8.81415C31.7944 9.11222 31.4537 9.5806 31.2834 10.0916C30.3041 10.3045 29.5376 11.1561 29.5376 12.178C29.5376 12.3058 29.5376 12.3909 29.5802 12.5187C28.9841 12.9019 28.5583 13.5832 28.5583 14.3496C28.5583 14.6477 28.6009 14.9457 28.7286 15.2012C27.9196 15.4993 27.366 16.3083 27.366 17.2025C27.366 17.6283 27.4938 18.0115 27.7067 18.3522C27.4086 18.7354 27.2383 19.1612 27.2383 19.6722C27.2383 20.4386 27.6215 21.0773 28.2176 21.4606C28.2176 21.5883 28.175 21.716 28.175 21.8012C28.175 22.3973 28.4305 22.9509 28.8138 23.3341C29.6654 31.2966 32.6886 39.983 32.6886 39.983C32.6886 29.5934 36.1802 24.058 36.1802 24.058C39.2885 25.4205 50.1466 25.5483 50.1466 25.5483C50.1466 25.5483 61.0046 25.4205 64.113 24.058C64.113 24.058 67.6046 29.5934 67.6046 39.983C67.6046 39.983 70.5426 31.5521 71.4368 23.6747C72.0755 23.2915 72.5013 22.6102 72.5013 21.8438C72.5013 21.3754 72.331 20.9496 72.1181 20.6089C72.3736 20.2683 72.5013 19.8425 72.5013 19.3741C72.331 19.076 72.2458 18.778 72.1181 18.5225Z" fill="#3C2418"/>
</g>
</svg>
